<svg xmlns="http://www.w3.org/2000/svg" xmlns:xlink="http://www.w3.org/1999/xlink" viewBox="0 0 766.47 321.66">
  <defs>
    <style>
      .a{fill:none;}.b{isolation:isolate;}.c{mix-blend-mode:multiply;}.d{clip-path:url(#a);}.e{clip-path:url(#b);}.f,.g,.h,.i{fill-rule:evenodd;}.g{fill:#39b54a;}.h{fill:#ed1c24;}.i{fill:#fff200;}
    </style>
    <clipPath id="a">
      <rect class="a" x="742.44" y="5.77" width="24.06" height="13.98"/>
    </clipPath>
    <clipPath id="b">
      <rect class="a" x="747.49" y="0.75" width="13.94" height="24.03" transform="translate(740.54 767.21) rotate(-89.91)"/>
    </clipPath>
  </defs>
  <title>Logo</title>
  <g class="b">
    <g class="c">
      <g class="d">
        <g class="e">
          <path class="f" d="M742.46,8.08h3.63l0,11.62h2.26l0-11.62H752V5.8l-9.51,0Zm23.17-2.25h-3.25l-2,6.85c-.25,1-.51,2.21-.8,3.48h-.05c-.28-1.43-.49-2.45-.74-3.53l-1.94-6.81h-3.38l-.88,13.92h2.18l.44-8.18c0-1.28.09-2.61.09-3.89h.12c.25,1.23.58,2.86.79,3.94l2,7.94h2.34l2.06-7.72c.34-1.28.68-2.91,1-4.14h.12c0,1.48,0,2.81.07,3.89l.4,8.19h2.25Z"/>
        </g>
      </g>
    </g>
    <path class="g" d="M730.31,6.47s6.18,380.52-501,305.37c0,0-234-33.71-229.28-169.69S178-17.46,338.11,10.23s302.6,22.57,392.2-3.76"/>
    <path class="h" d="M633.88,24.37c-82.31,8.47-184.81,5.05-295.77-14.14C178-17.46,4.77,6.17.07,142.15A107.18,107.18,0,0,0,7.72,186.4C31.46,231.87,97.79,287.68,270.54,297c0,0,347.59,41.82,363.34-272.58"/>
    <path class="i" d="M262.54,132.43c4.69-7.15,10.38-9.68,16.76-9.67,5.53,0,9.17,2.12,11.65,7.29C297,142.67,292.34,166,284.68,178c-4.81,7.5-10.53,10.91-17.06,10.9-6.18,0-12.42-4-14-13.8-2.2-13.38,2.17-32.29,9-42.63m-34.18-25.9c13.88-15,32.71-20.37,54.75-20.33,19.09,0,32.35,4.46,42.6,15.36,25,26.59,16.41,75.7-6.19,100.92-14.17,15.83-32.84,23-55.35,23-21.35,0-44.2-8.46-52.92-29.1-11.91-28.19-3-68,17.11-89.8M110.65,238.82l41.75.06c2.61,0,5.63-2.14,6.84-4.73L240.69,58.86c1.2-2.59-.06-4.74-2.66-4.75l-41.75-.06c-2.61,0-5.64,2.15-6.84,4.73l-32.38,69.68L124.9,58.69c-1.19-2.6-4.22-4.76-6.82-4.76l-42-.07c-2.61,0-3.87,2.15-2.68,4.75l57.83,125.46-23.24,50c-1.2,2.59.05,4.75,2.66,4.76m361.21-17.11,35.8,0a6.15,6.15,0,0,0,5.69-4.74l25.5-114.36L540.56,95v0a3.77,3.77,0,0,0-3.8-4.73L501,90.21A6.18,6.18,0,0,0,495.27,95l-1.7,7.64L468.06,217a3.78,3.78,0,0,0,3.8,4.76M544.37,77.94h0l1.7-7.65,2.45-10.94a3.78,3.78,0,0,0-3.81-4.75l-35.79-.06a6.17,6.17,0,0,0-5.69,4.74l-2.44,10.94-1.71,7.65a3.78,3.78,0,0,0,3.81,4.75l35.79.06a6.18,6.18,0,0,0,5.69-4.73M338.3,221.5l35.79.05a6.15,6.15,0,0,0,5.69-4.73L393,157.59l19.78,59.28a7.44,7.44,0,0,0,6.45,4.75l37.87.06c2.61,0,4-2.13,3.05-4.74l-22.88-64,49.71-58c2.23-2.6,1.81-4.75-.79-4.75l-49.08-.08c-2.6,0-6.66,2.11-8.69,4.73l-30.06,38.74L415,59.13a3.78,3.78,0,0,0-3.8-4.75l-35.8-.05a6.16,6.16,0,0,0-5.69,4.73L334.5,216.75a3.78,3.78,0,0,0,3.8,4.75"/>
  </g>
</svg>